<svg width="32" height="32" viewBox="0 0 32 32" fill="none" xmlns="http://www.w3.org/2000/svg">
    <path d="M26 6C23.791 6 22 7.791 22 10C22 12.209 23.791 14 26 14C28.209 14 30 12.209 30 10C30 7.791 28.209 6 26 6Z" fill="currentColor"/>
    <path d="M20.437 11.294C19.933 10.791 19.933 9.973 20.437 9.47L24.236 5.671C24.739 5.167 25.557 5.167 26.06 5.671C26.564 6.174 26.564 6.992 26.06 7.495L22.261 11.294C21.758 11.798 20.94 11.798 20.437 11.294Z" fill="currentColor"/>
    <path d="M8.126 23.874C9.292 25.04 10.896 25.799 12.667 25.963C14.439 26.127 16.192 25.683 17.602 24.727C19.012 23.77 20.011 22.361 20.42 20.751C20.829 19.141 20.623 17.439 19.839 15.962L27.879 7.914C28.114 7.676 28.246 7.361 28.246 7.032C28.245 6.704 28.112 6.388 27.875 6.151C27.639 5.914 27.324 5.78 26.995 5.778C26.666 5.777 26.349 5.909 26.112 6.144L18.049 14.159C16.571 13.374 14.867 13.168 13.255 13.578C11.643 13.988 10.233 14.988 9.277 16.4C8.321 17.811 7.877 19.566 8.042 21.339C8.208 23.112 8.97 24.716 10.138 25.883L8.126 27.887C7.995 28.016 7.891 28.17 7.819 28.34C7.748 28.509 7.711 28.692 7.71 28.876C7.709 29.061 7.745 29.244 7.814 29.414C7.884 29.584 7.986 29.739 8.116 29.869C8.246 29.999 8.401 30.101 8.571 30.171C8.741 30.24 8.924 30.276 9.109 30.275C9.293 30.274 9.476 30.237 9.645 30.166C9.815 30.094 9.969 29.99 10.098 29.859L12.101 27.858C12.803 28.56 13.644 29.118 14.577 29.498C15.51 29.878 16.514 30.073 17.528 30.073C18.541 30.073 19.546 29.878 20.479 29.498C21.412 29.118 22.253 28.56 22.955 27.858C23.657 27.157 24.215 26.316 24.595 25.383C24.975 24.45 25.17 23.446 25.17 22.432C25.17 21.418 24.975 20.414 24.595 19.481C24.215 18.548 23.657 17.707 22.955 17.005C22.253 16.303 21.412 15.745 20.479 15.366C19.546 14.986 18.541 14.79 17.528 14.79C16.514 14.79 15.51 14.986 14.577 15.366C13.644 15.745 12.803 16.303 12.101 17.005C10.703 18.422 9.937 20.373 9.95 22.399C9.964 24.426 10.756 26.365 12.174 27.764L8.126 23.874Z" fill="currentColor"/>
</svg>
